<?xml version="1.0" encoding="UTF-8"?>
<svg width="1280" height="1065.95" xmlns="http://www.w3.org/2000/svg">
 <title>Caution Logo</title>
 <g>
  <title>Layer 1</title>
  <g id="svg_1" transform="scale(2.30386) translate(-79.9834 -10.4823)">
   <path id="white_bg" fill="#ffffff" d="m356.095001,89.475502l194.467987,326.218498l-385.281006,1.25l190.813019,-327.468498z"/>
   <path id="foo" fill="#ea0000" d="m357.251007,10.538c-9.507019,-0.61434 -19.223999,3.8749 -25.313019,11.9375l-250.62468,421.062494c-1.694298,6.364014 -1.7584,10.416016 -0.25,16.406006c1.442398,5.729004 7.080101,11.636993 12.468788,13.062988l521.937874,0.156006c3.263,-0.59198 7.762024,-2.127991 9.968018,-3.406006c8.041016,-4.66098 13.478027,-17.070984 7.781982,-26.5l-253.718964,-420.000179c-3.705994,-6.1353 -11.178009,-10.556299 -18.188019,-12.124999c-1.337982,-0.2995 -2.703979,-0.506001 -4.061981,-0.593801l0,-0.00001zm-1.156006,78.937502l194.467987,326.218498l-385.281006,1.25l190.813019,-327.468498z"/>
   <path id="svg_2" fill="black" d="m349.161011,394.463013c-8.799011,-4.216003 -15.5,-14.353027 -15.5,-23.447998c0,-16.935028 17.688995,-29.692017 34.424988,-24.827026c11.291016,3.28302 18.963989,13.476013 18.869995,25.065002c-0.079987,9.845001 -4.338989,17.098022 -13.033997,22.193024c-6.654999,3.899994 -17.789001,4.356995 -24.760986,1.016998zm2,-66.870026c-1.100006,-0.60498 -3.690002,-2.709991 -5.756012,-4.678986c-7.218994,-6.877991 -7.209991,-6.817993 -11.915985,-80.415009c-4.182007,-65.421997 -4.21701,-66.438995 -2.422028,-71.138c4.038025,-10.572998 13.034027,-15.202988 28.015015,-14.416992c9.522003,0.5 16.855988,3.845993 21.622986,9.863998c4.071014,5.141006 4.956024,8.046997 4.953003,16.259995c-0.003998,8.925003 -5.703003,118.373016 -6.513,125.080017c-1.060974,8.785004 -6.187988,15.912994 -13.701996,19.052002c-4.294006,1.793976 -11.378998,1.988983 -14.281982,0.392975z"/>
  </g>
 </g>
</svg>