<?xml version="1.0" encoding="UTF-8" standalone="no"?>
<!-- Created with Inkscape (http://www.inkscape.org/) -->

<svg
   xmlns:dc="http://purl.org/dc/elements/1.1/"
   xmlns:cc="http://creativecommons.org/ns#"
   xmlns:rdf="http://www.w3.org/1999/02/22-rdf-syntax-ns#"
   xmlns:svg="http://www.w3.org/2000/svg"
   xmlns="http://www.w3.org/2000/svg"
   xmlns:sodipodi="http://sodipodi.sourceforge.net/DTD/sodipodi-0.dtd"
   xmlns:inkscape="http://www.inkscape.org/namespaces/inkscape"
   version="1.1"
   width="448.92001"
   height="215.4175"
   id="svg2"
   xml:space="preserve"
   inkscape:version="0.48.3.1 r9886"
   sodipodi:docname="zf2-logo-mark.svg"><sodipodi:namedview
     pagecolor="#ffffff"
     bordercolor="#666666"
     borderopacity="1"
     objecttolerance="10"
     gridtolerance="10"
     guidetolerance="10"
     inkscape:pageopacity="0"
     inkscape:pageshadow="2"
     inkscape:window-width="1855"
     inkscape:window-height="1056"
     id="namedview3049"
     showgrid="false"
     inkscape:zoom="1.1882353"
     inkscape:cx="495"
     inkscape:cy="382.50005"
     inkscape:window-x="65"
     inkscape:window-y="24"
     inkscape:window-maximized="1"
     inkscape:current-layer="svg2"
     fit-margin-top="0"
     fit-margin-left="0"
     fit-margin-right="0"
     fit-margin-bottom="0"><sodipodi:guide
       position="0,5e-05"
       orientation="0,990"
       id="guide3116" /><sodipodi:guide
       position="990,5e-05"
       orientation="-765,0"
       id="guide3118" /><sodipodi:guide
       position="990,765.00005"
       orientation="0,-990"
       id="guide3120" /><sodipodi:guide
       position="0,116.98025"
       orientation="765,0"
       id="guide3122" /></sodipodi:namedview><metadata
     id="metadata8"><rdf:RDF><cc:Work
         rdf:about=""><dc:format>image/svg+xml</dc:format><dc:type
           rdf:resource="http://purl.org/dc/dcmitype/StillImage" /><dc:title /></cc:Work></rdf:RDF></metadata><defs
     id="defs6" /><g
     transform="matrix(1.25,0,0,-1.25,-271.8125,490.39625)"
     id="g10"><g
       transform="scale(0.1,0.1)"
       id="g12"
       style="fill:#68B604;fill-opacity:1"><path
         d="m 3863.54,3423.46 c 0,0 0,475.58 475.59,475.58 l 1426.73,0 c 0,0 0,-475.58 -475.58,-475.58 l -1426.74,0"
         id="path14"
         style="fill:#68B604;fill-opacity:1;fill-rule:nonzero;stroke:none"
         inkscape:connector-curvature="0" /><path
         d="m 3863.54,2815.78 c 0,0 0,475.58 475.59,475.58 l 713.36,0 c 0,0 0,-475.58 -475.59,-475.58 l -713.36,0"
         id="path16"
         style="fill:#68B604;fill-opacity:1;fill-rule:nonzero;stroke:none"
         inkscape:connector-curvature="0" /><path
         d="m 3863.54,2208.1 c 0,0 0,475.57 475.59,475.57 l 237.77,0 c 0,0 0,-475.57 -475.56,-475.57 l -237.8,0"
         id="path18"
         style="fill:#68B604;fill-opacity:1;fill-rule:nonzero;stroke:none"
         inkscape:connector-curvature="0" /><path
         d="m 3703.88,2579.23 0,-379.4 -1529.38,0 985.22,1343.92 -845.78,0 0,379.42 1595.48,0 -980.67,-1343.94 775.13,0"
         id="path20"
         style="fill:#68B604;fill-opacity:1;fill-rule:nonzero;stroke:none"
         inkscape:connector-curvature="0" /></g></g></svg>